<?xml version="1.0" encoding="utf-8"?>
<!-- Generator: Adobe Illustrator 25.0.1, SVG Export Plug-In . SVG Version: 6.00 Build 0)  -->
<svg version="1.1" id="Layer_1" xmlns="http://www.w3.org/2000/svg" xmlns:xlink="http://www.w3.org/1999/xlink" x="0px" y="0px"
	 viewBox="0 0 1549 889" style="enable-background:new 0 0 1549 889;" xml:space="preserve">
<style type="text/css">
	.st0{fill:#B9B9B9;}
	.st1{fill:url(#SVGID_1_);}
	.st2{fill:url(#SVGID_2_);}
	.st3{fill:none;stroke:#999999;stroke-width:2;stroke-linecap:round;stroke-linejoin:round;}
	.st4{fill:#22403E;}
	.st5{font-family:'Lato';font-weight:700; letter-spacing:-1px}
	.st6{font-size:35px;}
	.st7{fill:url(#SVGID_3_);}
	.st8{fill:url(#SVGID_4_);}
	.st9{fill:url(#SVGID_5_);}
	.st10{fill:url(#SVGID_6_);}
	.st11{fill:url(#SVGID_7_);}
	.st12{fill:url(#SVGID_8_);}
	.st13{fill:url(#SVGID_9_);}
	.st14{fill:url(#SVGID_10_);}
	.st15{fill:url(#SVGID_11_);}
	.st16{fill:url(#SVGID_12_);}
	.st17{fill:url(#SVGID_13_);}
	.st18{fill:url(#SVGID_14_);}
	.st19{fill:url(#SVGID_15_);}
	.st20{fill:url(#SVGID_16_);}
	.st21{fill:#626262;}
	.st22{fill:url(#SVGID_17_);}
	.st23{fill:url(#SVGID_18_);}
	.st24{fill:#DE7001;}
 
</style>
<g id="btn08-cleaning_x5F_up">
	<g transform="matrix( 2.09991455078125, 0, 0, 2.09991455078125, 550.75,487.2) ">
		<g transform="matrix( 1, 0, 0, 1, 0,0) ">
			<g>
				<g id="p8_0_Layer2_0_MEMBER_0_FILL">
					<path class="st0" d="M18.3-92.5c0-7-2.5-12.9-7.4-17.9C6-115.3,0-117.8-7-117.8s-12.9,2.5-17.8,7.4c-4.9,5-7.4,10.9-7.4,17.9
						c0,7,2.5,12.9,7.4,17.9c4.9,4.9,10.9,7.4,17.8,7.4s12.9-2.5,17.9-7.4C15.9-79.6,18.3-85.5,18.3-92.5z"/>
				</g>
			</g>
		</g>
		<g transform="matrix( 1, 0, 0, 1, 0.45,0.5) ">
			<g>
				<g id="p8_0_Layer2_0_MEMBER_1_FILL">
					
						<linearGradient id="SVGID_1_" gradientUnits="userSpaceOnUse" x1="-323.2086" y1="272.5898" x2="-323.2086" y2="322.1898" gradientTransform="matrix(9.2598 0 0 -9.2598 2985.4604 2455.9724)">
						<stop  offset="0" style="stop-color:#B6B8BA"/>
						<stop  offset="0.2667" style="stop-color:#C5C7C8"/>
						<stop  offset="0.7843" style="stop-color:#ECEDED"/>
						<stop  offset="1" style="stop-color:#FFFFFF"/>
					</linearGradient>
					<path class="st1" d="M17.4-93c0-6.8-2.4-12.7-7.2-17.5c-4.9-4.9-10.7-7.3-17.6-7.3c-6.8,0-12.7,2.4-17.6,7.3
						c-4.8,4.8-7.2,10.7-7.2,17.5c0,6.9,2.4,12.7,7.2,17.5c4.9,4.8,10.7,7.2,17.5,7.2c6.9,0,12.7-2.4,17.5-7.2S17.4-86.1,17.4-93z"
						/>
				</g>
			</g>
		</g>
		
			<image style="overflow:visible;enable-background:new    ;" width="116" height="116" xlink:href="7539417F3673D032.png"  transform="matrix(0.4762 0 0 0.4762 -34.4905 -120.2285)">
		</image>
	</g>
	<g transform="matrix( 1, 0, 0, 1, -214.1,126) ">
		<g>
			<g id="Layer1_1_FILL">
				
					<linearGradient id="SVGID_2_" gradientUnits="userSpaceOnUse" x1="1190.0229" y1="1326.932" x2="1190.0229" y2="1229.807" gradientTransform="matrix(1 0 0 -1 -642.3 1438)">
					<stop  offset="0" style="stop-color:#FFFFFF"/>
					<stop  offset="1" style="stop-color:#D1D3D4"/>
				</linearGradient>
				<path class="st2" d="M683.4,133.3c0-2.3-0.8-4.2-2.4-5.8c-1.5-1.6-3.5-2.3-5.8-2.3H420.1c-2.2,0-4.1,0.8-5.7,2.3
					s-2.4,3.5-2.4,5.8v52.9c0,2.2,0.8,4.2,2.4,5.8c1.6,1.6,3.5,2.4,5.7,2.4h255.1c2.3,0,4.2-0.8,5.8-2.4s2.4-3.5,2.4-5.8
					L683.4,133.3L683.4,133.3z"/>
			</g>
		</g>
		<g>
			<path id="Layer1_1_1_STROKES" class="st3" d="M420.1,125.2c-2.2,0-4.1,0.8-5.7,2.3s-2.4,3.5-2.4,5.8v52.9c0,2.2,0.8,4.2,2.4,5.8
				c1.6,1.6,3.5,2.4,5.7,2.4h255.1c2.3,0,4.2-0.8,5.8-2.4s2.4-3.5,2.4-5.8v-52.9c0-2.3-0.8-4.2-2.4-5.8c-1.5-1.6-3.5-2.3-5.8-2.3
				H420.1z"/>
		</g>
	</g>
	<g transform="matrix( 0.9199066162109375, 0, 0, 0.9199066162109375, 336.05,509.65) ">
		<g>
			<text transform="matrix(1.0871 0 0 1.0871 -96.1109 -232.5985)" class="st4 st5 st6">Cleaning Up</text>
		</g>
	</g>
</g>
<g id="btn07-broth_x5F_to_x5F_broth">
	<g transform="matrix( 2.09991455078125, 0, 0, 2.09991455078125, 492.45,627.75) ">
		<g transform="matrix( 1, 0, 0, 1, 0,0) ">
			<g>
				<g id="p7_0_Layer2_0_MEMBER_0_FILL">
					<path class="st0" d="M18.3-92.5c0-7-2.5-12.9-7.4-17.9C6-115.3,0-117.8-7-117.8s-12.9,2.5-17.8,7.4c-4.9,5-7.4,10.9-7.4,17.9
						c0,7,2.5,12.9,7.4,17.9c4.9,4.9,10.9,7.4,17.8,7.4s12.9-2.5,17.9-7.4C15.9-79.6,18.3-85.5,18.3-92.5z"/>
				</g>
			</g>
		</g>
		<g transform="matrix( 1, 0, 0, 1, 0.45,0.5) ">
			<g>
				<g id="p7_0_Layer2_0_MEMBER_1_FILL">
					
						<linearGradient id="SVGID_3_" gradientUnits="userSpaceOnUse" x1="-275.9285" y1="222.3535" x2="-275.9285" y2="271.9535" gradientTransform="matrix(9.2598 0 0 -9.2598 2547.6567 1990.7944)">
						<stop  offset="0" style="stop-color:#B6B8BA"/>
						<stop  offset="0.2667" style="stop-color:#C5C7C8"/>
						<stop  offset="0.7843" style="stop-color:#ECEDED"/>
						<stop  offset="1" style="stop-color:#FFFFFF"/>
					</linearGradient>
					<path class="st7" d="M17.4-93c0-6.8-2.4-12.7-7.2-17.5c-4.9-4.9-10.7-7.3-17.6-7.3c-6.8,0-12.7,2.4-17.6,7.3
						c-4.8,4.8-7.2,10.7-7.2,17.5c0,6.9,2.4,12.7,7.2,17.5c4.9,4.8,10.7,7.2,17.5,7.2c6.9,0,12.7-2.4,17.5-7.2S17.4-86.1,17.4-93z"
						/>
				</g>
			</g>
		</g>
		
			<image style="overflow:visible;enable-background:new    ;" width="116" height="116" xlink:href="7539417F3673D036.png"  transform="matrix(0.4762 0 0 0.4762 -34.4082 -120.1224)">
		</image>
	</g>
	<g transform="matrix( 1, 0, 0, 1, -214.1,126) ">
		<g>
			<g id="Layer2_1_FILL">
				
					<linearGradient id="SVGID_4_" gradientUnits="userSpaceOnUse" x1="1082.3229" y1="1173.832" x2="1082.3229" y2="1076.707" gradientTransform="matrix(1 0 0 -1 -642.3 1438)">
					<stop  offset="0" style="stop-color:#FFFFFF"/>
					<stop  offset="1" style="stop-color:#D1D3D4"/>
				</linearGradient>
				<path class="st8" d="M623.2,286.4c0-2.3-0.8-4.2-2.3-5.8c-1.6-1.6-3.5-2.4-5.8-2.4H264.8c-2.2,0-4.1,0.8-5.7,2.4
					c-1.6,1.6-2.4,3.5-2.4,5.8v52.8c0,2.2,0.8,4.1,2.4,5.8c1.6,1.6,3.5,2.3,5.7,2.3h350.4c2.2,0,4.2-0.8,5.8-2.3
					c1.5-1.6,2.3-3.5,2.3-5.8L623.2,286.4L623.2,286.4z"/>
			</g>
		</g>
		<g>
			<path id="Layer2_1_1_STROKES" class="st3" d="M264.8,278.2c-2.2,0-4.1,0.8-5.7,2.4c-1.6,1.6-2.4,3.5-2.4,5.8v52.8
				c0,2.2,0.8,4.1,2.4,5.8c1.6,1.6,3.5,2.3,5.7,2.3h350.4c2.2,0,4.2-0.8,5.8-2.3c1.5-1.6,2.3-3.5,2.3-5.8v-52.8
				c0-2.3-0.8-4.2-2.3-5.8c-1.6-1.6-3.5-2.4-5.8-2.4H264.8z"/>
		</g>
	</g>
	<g transform="matrix( 0.9199066162109375, 0, 0, 0.9199066162109375, 228.35,662.75) ">
		<g>
			<text transform="matrix(1.0871 0 0 1.0871 -185.5605 -232.5978)" class="st4 st5 st6">Broth to Broth Transfer</text>
		</g>
	</g>
</g>
<g id="btn06-palat_x5F_to_x5F_plate">
	<g transform="matrix( 2.09991455078125, 0, 0, 2.09991455078125, 550.75,770.3) ">
		<g transform="matrix( 1, 0, 0, 1, 0,0) ">
			<g>
				<g id="p6_0_Layer2_0_MEMBER_0_FILL">
					<path class="st0" d="M18.3-92.5c0-7-2.5-12.9-7.4-17.9C6-115.3,0-117.8-7-117.8s-12.9,2.5-17.8,7.4c-4.9,5-7.4,10.9-7.4,17.9
						c0,7,2.5,12.9,7.4,17.9c4.9,4.9,10.9,7.4,17.8,7.4s12.9-2.5,17.9-7.4C15.9-79.6,18.3-85.5,18.3-92.5z"/>
				</g>
			</g>
		</g>
		<g transform="matrix( 1, 0, 0, 1, 0.45,0.5) ">
			<g>
				<g id="p6_0_Layer2_0_MEMBER_1_FILL">
					
						<linearGradient id="SVGID_5_" gradientUnits="userSpaceOnUse" x1="-323.2086" y1="171.4023" x2="-323.2086" y2="221.0023" gradientTransform="matrix(9.2598 0 0 -9.2598 2985.4604 1518.9968)">
						<stop  offset="0" style="stop-color:#B6B8BA"/>
						<stop  offset="0.2667" style="stop-color:#C5C7C8"/>
						<stop  offset="0.7843" style="stop-color:#ECEDED"/>
						<stop  offset="1" style="stop-color:#FFFFFF"/>
					</linearGradient>
					<path class="st9" d="M17.4-93c0-6.8-2.4-12.7-7.2-17.5c-4.9-4.9-10.7-7.3-17.6-7.3c-6.8,0-12.7,2.4-17.6,7.3
						c-4.8,4.8-7.2,10.7-7.2,17.5c0,6.9,2.4,12.7,7.2,17.5c4.9,4.8,10.7,7.2,17.5,7.2c6.9,0,12.7-2.4,17.5-7.2S17.4-86.1,17.4-93z"
						/>
				</g>
			</g>
		</g>
		
			<image style="overflow:visible;enable-background:new    ;" width="116" height="116" xlink:href="7539417F3673D031.png"  transform="matrix(0.4762 0 0 0.4762 -34.5511 -120.1224)">
		</image>
	</g>
	<g transform="matrix( 1, 0, 0, 1, -214.1,126) ">
		<g>
			<g id="Layer3_1_FILL">
				
					<linearGradient id="SVGID_6_" gradientUnits="userSpaceOnUse" x1="1142.4229" y1="1020.732" x2="1142.4229" y2="923.607" gradientTransform="matrix(1 0 0 -1 -642.3 1438)">
					<stop  offset="0" style="stop-color:#FFFFFF"/>
					<stop  offset="1" style="stop-color:#D1D3D4"/>
				</linearGradient>
				<path class="st10" d="M683.4,439.5c0-2.3-0.8-4.2-2.3-5.8c-1.6-1.6-3.5-2.3-5.8-2.3H324.9c-2.2,0-4.1,0.8-5.7,2.3
					s-2.4,3.5-2.4,5.8v52.8c0,2.2,0.8,4.2,2.4,5.8s3.5,2.4,5.7,2.4h350.4c2.2,0,4.1-0.8,5.8-2.4c1.5-1.6,2.3-3.5,2.3-5.8V439.5z"/>
			</g>
		</g>
		<g>
			<path id="Layer3_1_1_STROKES" class="st3" d="M324.9,431.4c-2.2,0-4.1,0.8-5.7,2.3s-2.4,3.5-2.4,5.8v52.8c0,2.2,0.8,4.2,2.4,5.8
				s3.5,2.4,5.7,2.4h350.4c2.2,0,4.1-0.8,5.8-2.4c1.5-1.6,2.3-3.5,2.3-5.8v-52.8c0-2.3-0.8-4.2-2.3-5.8c-1.6-1.6-3.5-2.3-5.8-2.3
				H324.9z"/>
		</g>
	</g>
	<g transform="matrix( 0.9199066162109375, 0, 0, 0.9199066162109375, 288.45,815.85) ">
		<g>
			<text transform="matrix(1.0871 0 0 1.0871 -177.4106 -232.5982)" class="st4 st5 st6">Plate to Plate Transfer</text>
		</g>
	</g>
</g>
<g id="btn05_x5F_broth_x5F_to_x5F_plate">
	<g transform="matrix( 2.09991455078125, 0, 0, 2.09991455078125, 692,828.05) ">
		<g transform="matrix( 1, 0, 0, 1, 0,0) ">
			<g>
				<g id="p5_0_Layer2_0_MEMBER_0_FILL">
					<path class="st0" d="M18.3-92.5c0-7-2.5-12.9-7.4-17.9C6-115.3,0-117.8-7-117.8s-12.9,2.5-17.8,7.4c-4.9,5-7.4,10.9-7.4,17.9
						c0,7,2.5,12.9,7.4,17.9c4.9,4.9,10.9,7.4,17.8,7.4s12.9-2.5,17.9-7.4C15.9-79.6,18.3-85.5,18.3-92.5z"/>
				</g>
			</g>
		</g>
		<g transform="matrix( 1, 0, 0, 1, 0.45,0.5) ">
			<g>
				<g id="p5_0_Layer2_0_MEMBER_1_FILL">
					
						<linearGradient id="SVGID_7_" gradientUnits="userSpaceOnUse" x1="-437.7595" y1="150.7609" x2="-437.7595" y2="200.3609" gradientTransform="matrix(9.2598 0 0 -9.2598 4046.177 1327.8617)">
						<stop  offset="0" style="stop-color:#B6B8BA"/>
						<stop  offset="0.2667" style="stop-color:#C5C7C8"/>
						<stop  offset="0.7843" style="stop-color:#ECEDED"/>
						<stop  offset="1" style="stop-color:#FFFFFF"/>
					</linearGradient>
					<path class="st11" d="M17.4-93c0-6.8-2.4-12.7-7.2-17.5c-4.9-4.9-10.7-7.3-17.6-7.3c-6.8,0-12.7,2.4-17.6,7.3
						c-4.8,4.8-7.2,10.7-7.2,17.5c0,6.9,2.4,12.7,7.2,17.5c4.9,4.8,10.7,7.2,17.5,7.2c6.9,0,12.7-2.4,17.5-7.2S17.4-86.1,17.4-93z"
						/>
				</g>
			</g>
		</g>
		
			<image style="overflow:visible;enable-background:new    ;" width="116" height="116" xlink:href="7539417F3673D033.png"  transform="matrix(0.4762 0 0 0.4762 -34.5511 -120.2486)">
		</image>
	</g>
	<g transform="matrix( 1, 0, 0, 1, -214.1,126) ">
		<g>
			<g id="Layer4_1_FILL">
				
					<linearGradient id="SVGID_8_" gradientUnits="userSpaceOnUse" x1="1535.8229" y1="867.732" x2="1535.8229" y2="770.607" gradientTransform="matrix(1 0 0 -1 -642.3 1438)">
					<stop  offset="0" style="stop-color:#FFFFFF"/>
					<stop  offset="1" style="stop-color:#D1D3D4"/>
				</linearGradient>
				<path class="st12" d="M1076.7,592.5c0-2.3-0.8-4.2-2.3-5.8c-1.6-1.6-3.5-2.3-5.8-2.3H718.3c-2.2,0-4.1,0.8-5.7,2.3
					s-2.4,3.5-2.4,5.8v52.8c0,2.2,0.8,4.2,2.4,5.8c1.6,1.6,3.5,2.4,5.7,2.4h350.4c2.2,0,4.2-0.8,5.8-2.4c1.5-1.6,2.3-3.5,2.3-5.8
					v-52.8H1076.7z"/>
			</g>
		</g>
		<g>
			<path id="Layer4_1_1_STROKES" class="st3" d="M718.3,584.4c-2.2,0-4.1,0.8-5.7,2.3s-2.4,3.5-2.4,5.8v52.8c0,2.2,0.8,4.2,2.4,5.8
				c1.6,1.6,3.5,2.4,5.7,2.4h350.4c2.2,0,4.2-0.8,5.8-2.4c1.5-1.6,2.3-3.5,2.3-5.8v-52.8c0-2.3-0.8-4.2-2.3-5.8
				c-1.6-1.6-3.5-2.3-5.8-2.3H718.3z"/>
		</g>
	</g>
	<g transform="matrix( 0.9199066162109375, 0, 0, 0.9199066162109375, 681.85,968.85) ">
		<g>
			<text transform="matrix(1.0871 0 0 1.0871 -181.5106 -232.5982)" class="st4 st5 st6">Broth to Plate Transfer</text>
		</g>
	</g>
</g>
<g id="btn04-plate_x5F_labeling">
	<g transform="matrix( 2.09991455078125, 0, 0, 2.09991455078125, 833.55,770.3) ">
		<g transform="matrix( 1, 0, 0, 1, 0,0) ">
			<g>
				<g id="p4_0_Layer2_0_MEMBER_0_FILL">
					<path class="st0" d="M18.3-92.5c0-7-2.5-12.9-7.4-17.9C6-115.3,0-117.8-7-117.8s-12.9,2.5-17.8,7.4c-4.9,5-7.4,10.9-7.4,17.9
						c0,7,2.5,12.9,7.4,17.9c4.9,4.9,10.9,7.4,17.8,7.4s12.9-2.5,17.9-7.4C15.9-79.6,18.3-85.5,18.3-92.5z"/>
				</g>
			</g>
		</g>
		<g transform="matrix( 1, 0, 0, 1, 0.45,0.5) ">
			<g>
				<g id="p4_0_Layer2_0_MEMBER_1_FILL">
					
						<linearGradient id="SVGID_9_" gradientUnits="userSpaceOnUse" x1="-552.5537" y1="171.4023" x2="-552.5537" y2="221.0023" gradientTransform="matrix(9.2598 0 0 -9.2598 5109.146 1518.9968)">
						<stop  offset="0" style="stop-color:#B6B8BA"/>
						<stop  offset="0.2667" style="stop-color:#C5C7C8"/>
						<stop  offset="0.7843" style="stop-color:#ECEDED"/>
						<stop  offset="1" style="stop-color:#FFFFFF"/>
					</linearGradient>
					<path class="st13" d="M17.4-93c0-6.8-2.4-12.7-7.2-17.5c-4.9-4.9-10.7-7.3-17.6-7.3c-6.8,0-12.7,2.4-17.6,7.3
						c-4.8,4.8-7.2,10.7-7.2,17.5c0,6.9,2.4,12.7,7.2,17.5c4.9,4.8,10.7,7.2,17.5,7.2c6.9,0,12.7-2.4,17.5-7.2S17.4-86.1,17.4-93z"
						/>
				</g>
			</g>
		</g>
		
			<image style="overflow:visible;enable-background:new    ;" width="116" height="116" xlink:href="7539417F3673D030.png"  transform="matrix(0.4762 0 0 0.4762 -34.4591 -120.0724)">
		</image>
	</g>
	<g transform="matrix( 1, 0, 0, 1, -214.1,126) ">
		<g>
			<g id="Layer5_1_FILL">
				
					<linearGradient id="SVGID_10_" gradientUnits="userSpaceOnUse" x1="1879.4229" y1="1020.732" x2="1879.4229" y2="923.607" gradientTransform="matrix(1 0 0 -1 -642.3 1438)">
					<stop  offset="0" style="stop-color:#FFFFFF"/>
					<stop  offset="1" style="stop-color:#D1D3D4"/>
				</linearGradient>
				<path class="st14" d="M1372.8,439.5c0-2.3-0.8-4.2-2.3-5.8s-3.4-2.3-5.8-2.3h-255.2c-2.2,0-4.1,0.8-5.7,2.3s-2.4,3.5-2.4,5.8
					v52.8c0,2.2,0.8,4.2,2.4,5.8s3.5,2.4,5.7,2.4h255.2c2.3,0,4.2-0.8,5.8-2.4c1.6-1.6,2.3-3.5,2.3-5.8V439.5z"/>
			</g>
		</g>
		<g>
			<path id="Layer5_1_1_STROKES" class="st3" d="M1109.6,431.4c-2.2,0-4.1,0.8-5.7,2.3s-2.4,3.5-2.4,5.8v52.8c0,2.2,0.8,4.2,2.4,5.8
				s3.5,2.4,5.7,2.4h255.2c2.3,0,4.2-0.8,5.8-2.4c1.6-1.6,2.3-3.5,2.3-5.8v-52.8c0-2.3-0.8-4.2-2.3-5.8s-3.4-2.3-5.8-2.3H1109.6z"/>
		</g>
	</g>
	<g transform="matrix( 0.9199066162109375, 0, 0, 0.9199066162109375, 1025.55,815.85) ">
		<g>
			<text transform="matrix(1.0871 0 0 1.0871 -111.8108 -232.5982)" class="st4 st5 st6">Plate Labeling</text>
		</g>
	</g>
</g>
<g id="btn03-sterilizing">
	<g transform="matrix( 2.09991455078125, 0, 0, 2.09991455078125, 892.05,627.75) ">
		<g transform="matrix( 1, 0, 0, 1, 0,0) ">
			<g>
				<g id="p3_0_Layer2_0_MEMBER_0_FILL">
					<path class="st0" d="M18.3-92.5c0-7-2.5-12.9-7.4-17.9C6-115.3,0-117.8-7-117.8s-12.9,2.5-17.8,7.4c-4.9,5-7.4,10.9-7.4,17.9
						c0,7,2.5,12.9,7.4,17.9c4.9,4.9,10.9,7.4,17.8,7.4s12.9-2.5,17.9-7.4C15.9-79.6,18.3-85.5,18.3-92.5z"/>
				</g>
			</g>
		</g>
		<g transform="matrix( 1, 0, 0, 1, 0.45,0.5) ">
			<g>
				<g id="p3_0_Layer2_0_MEMBER_1_FILL">
					
						<linearGradient id="SVGID_11_" gradientUnits="userSpaceOnUse" x1="-599.996" y1="222.3535" x2="-599.996" y2="271.9535" gradientTransform="matrix(9.2598 0 0 -9.2598 5548.4517 1990.7944)">
						<stop  offset="0" style="stop-color:#B6B8BA"/>
						<stop  offset="0.2667" style="stop-color:#C5C7C8"/>
						<stop  offset="0.7843" style="stop-color:#ECEDED"/>
						<stop  offset="1" style="stop-color:#FFFFFF"/>
					</linearGradient>
					<path class="st15" d="M17.4-93c0-6.8-2.4-12.7-7.2-17.5c-4.9-4.9-10.7-7.3-17.6-7.3c-6.8,0-12.7,2.4-17.6,7.3
						c-4.8,4.8-7.2,10.7-7.2,17.5c0,6.9,2.4,12.7,7.2,17.5c4.9,4.8,10.7,7.2,17.5,7.2c6.9,0,12.7-2.4,17.5-7.2S17.4-86.1,17.4-93z"
						/>
				</g>
			</g>
		</g>
		
			<image style="overflow:visible;enable-background:new    ;" width="116" height="116" xlink:href="7539417F3673D03E.png"  transform="matrix(0.4762 0 0 0.4762 -34.5511 -120.0618)">
		</image>
	</g>
	<g transform="matrix( 1, 0, 0, 1, -214.1,126) ">
		<g>
			<g id="Layer6_1_FILL">
				
					<linearGradient id="SVGID_12_" gradientUnits="userSpaceOnUse" x1="2081.5229" y1="1173.832" x2="2081.5229" y2="1076.707" gradientTransform="matrix(1 0 0 -1 -642.3 1438)">
					<stop  offset="0" style="stop-color:#FFFFFF"/>
					<stop  offset="1" style="stop-color:#D1D3D4"/>
				</linearGradient>
				<path class="st16" d="M1715.5,339.2v-52.8c0-2.3-0.8-4.2-2.4-5.8c-1.5-1.6-3.4-2.4-5.7-2.4H1171c-2.2,0-4.1,0.8-5.7,2.4
					c-1.6,1.6-2.4,3.5-2.4,5.8v52.8c0,2.2,0.8,4.1,2.4,5.8c1.6,1.6,3.5,2.3,5.7,2.3h536.4c2.3,0,4.2-0.8,5.7-2.3
					C1714.7,343.3,1715.5,341.4,1715.5,339.2z"/>
			</g>
		</g>
		<g>
			<path id="Layer6_1_1_STROKES" class="st3" d="M1171,278.2c-2.2,0-4.1,0.8-5.7,2.4c-1.6,1.6-2.4,3.5-2.4,5.8v52.8
				c0,2.2,0.8,4.1,2.4,5.8c1.6,1.6,3.5,2.3,5.7,2.3h536.4c2.3,0,4.2-0.8,5.7-2.3c1.6-1.6,2.4-3.5,2.4-5.8v-52.8
				c0-2.3-0.8-4.2-2.4-5.8c-1.5-1.6-3.4-2.4-5.7-2.4H1171z"/>
		</g>
	</g>
	<g transform="matrix( 0.9199066162109375, 0, 0, 0.9199066162109375, 1226.45,662.6) ">
		<g>
			<text transform="matrix(1.0871 0 0 1.0871 -278.9604 -232.5982)" class="st4 st5 st6">Sterilizing a Metal Inoculating Loop</text>
		</g>
	</g>
</g>
<g id="btn02-cleaning_x5F_hands">
	<g transform="matrix( 2.09991455078125, 0, 0, 2.09991455078125, 833.55,487.2) ">
		<g transform="matrix( 1, 0, 0, 1, 0,0) ">
			<g>
				<g id="p2_0_Layer2_0_MEMBER_0_FILL">
					<path class="st0" d="M18.3-92.5c0-7-2.5-12.9-7.4-17.9C6-115.3,0-117.8-7-117.8s-12.9,2.5-17.8,7.4c-4.9,5-7.4,10.9-7.4,17.9
						c0,7,2.5,12.9,7.4,17.9c4.9,4.9,10.9,7.4,17.8,7.4s12.9-2.5,17.9-7.4C15.9-79.6,18.3-85.5,18.3-92.5z"/>
				</g>
			</g>
		</g>
		<g transform="matrix( 1, 0, 0, 1, 0.45,0.5) ">
			<g>
				<g id="p2_0_Layer2_0_MEMBER_1_FILL">
					
						<linearGradient id="SVGID_13_" gradientUnits="userSpaceOnUse" x1="-552.5537" y1="272.5898" x2="-552.5537" y2="322.1898" gradientTransform="matrix(9.2598 0 0 -9.2598 5109.146 2455.9724)">
						<stop  offset="0" style="stop-color:#B6B8BA"/>
						<stop  offset="0.2667" style="stop-color:#C5C7C8"/>
						<stop  offset="0.7843" style="stop-color:#ECEDED"/>
						<stop  offset="1" style="stop-color:#FFFFFF"/>
					</linearGradient>
					<path class="st17" d="M17.4-93c0-6.8-2.4-12.7-7.2-17.5c-4.9-4.9-10.7-7.3-17.6-7.3c-6.8,0-12.7,2.4-17.6,7.3
						c-4.8,4.8-7.2,10.7-7.2,17.5c0,6.9,2.4,12.7,7.2,17.5c4.9,4.8,10.7,7.2,17.5,7.2c6.9,0,12.7-2.4,17.5-7.2S17.4-86.1,17.4-93z"
						/>
				</g>
			</g>
		</g>
		
			<image style="overflow:visible;enable-background:new    ;" width="116" height="116" xlink:href="7539417F3673D035.png"  transform="matrix(0.4762 0 0 0.4762 -34.5511 -120.0724)">
		</image>
	</g>
	<g transform="matrix( 1, 0, 0, 1, -214.1,126) ">
		<g>
			<g id="Layer7_1_FILL">
				
					<linearGradient id="SVGID_14_" gradientUnits="userSpaceOnUse" x1="1879.4229" y1="1326.932" x2="1879.4229" y2="1229.807" gradientTransform="matrix(1 0 0 -1 -642.3 1438)">
					<stop  offset="0" style="stop-color:#FFFFFF"/>
					<stop  offset="1" style="stop-color:#D1D3D4"/>
				</linearGradient>
				<path class="st18" d="M1372.8,133.3c0-2.3-0.8-4.2-2.3-5.8c-1.5-1.6-3.4-2.3-5.8-2.3h-255.2c-2.2,0-4.1,0.8-5.7,2.3
					s-2.4,3.5-2.4,5.8v52.9c0,2.2,0.8,4.2,2.4,5.8c1.6,1.6,3.5,2.4,5.7,2.4h255.2c2.3,0,4.2-0.8,5.8-2.4c1.6-1.6,2.3-3.5,2.3-5.8
					V133.3z"/>
			</g>
		</g>
		<g>
			<path id="Layer7_1_1_STROKES" class="st3" d="M1109.6,125.2c-2.2,0-4.1,0.8-5.7,2.3s-2.4,3.5-2.4,5.8v52.9c0,2.2,0.8,4.2,2.4,5.8
				c1.6,1.6,3.5,2.4,5.7,2.4h255.2c2.3,0,4.2-0.8,5.8-2.4c1.6-1.6,2.3-3.5,2.3-5.8v-52.9c0-2.3-0.8-4.2-2.3-5.8
				c-1.5-1.6-3.4-2.3-5.8-2.3H1109.6z"/>
		</g>
	</g>
	<g transform="matrix( 0.9199066162109375, 0, 0, 0.9199066162109375, 1025.55,509.65) ">
		<g>
			<text transform="matrix(1.0871 0 0 1.0871 -122.8609 -232.5985)" class="st4 st5 st6">Cleaning Hands</text>
		</g>
	</g>
</g>
<g id="btn01-preparing">
	<g transform="matrix( 1, 0, 0, 1, 0,0) ">
		<g>
			<g id="p1_0_Layer2_0_MEMBER_0_FILL">
				<path class="st0" d="M714.9,271.9c10.3-10.3,15.5-22.9,15.5-37.6s-5.2-27.1-15.5-37.6c-10.3-10.3-22.9-15.5-37.6-15.5
					s-27.1,5.2-37.4,15.5c-10.3,10.5-15.5,22.9-15.5,37.6s5.2,27.1,15.5,37.6c10.3,10.3,22.9,15.5,37.4,15.5
					S704.6,282.2,714.9,271.9z"/>
			</g>
		</g>
	</g>
	<g transform="matrix( 1, 0, 0, 1, 0.45,0.5) ">
		<g>
			<g id="p1_0_Layer2_0_MEMBER_1_FILL">
				
					<linearGradient id="SVGID_15_" gradientUnits="userSpaceOnUse" x1="216.7812" y1="579.1263" x2="216.7812" y2="628.7262" gradientTransform="matrix(4.4096 0 0 -4.4096 -279.0454 2839.6021)">
					<stop  offset="0" style="stop-color:#B6B8BA"/>
					<stop  offset="0.2667" style="stop-color:#C5C7C8"/>
					<stop  offset="0.7843" style="stop-color:#ECEDED"/>
					<stop  offset="1" style="stop-color:#FFFFFF"/>
				</linearGradient>
				<path class="st19" d="M713.7,270.5c10.1-10.1,15.1-22.5,15.1-36.7c0-14.3-5-26.7-15.1-36.7c-10.1-10.4-22.2-15.4-36.7-15.4
					c-14.3,0-26.7,5-37,15.3c-10.1,10.1-15.1,22.5-15.1,36.7c0,14.5,5,26.7,15.1,36.7c10.3,10.1,22.5,15.1,36.7,15.1
					C691.5,285.9,703.6,280.8,713.7,270.5z"/>
			</g>
		</g>
	</g>
	<g transform="matrix( 1, 0, 0, 1, -214.1,126) ">
		<g>
			<g id="Layer8_1_FILL">
				
					<linearGradient id="SVGID_16_" gradientUnits="userSpaceOnUse" x1="1535.9229" y1="1479.9821" x2="1535.9229" y2="1382.8571" gradientTransform="matrix(1 0 0 -1 -642.3 1438)">
					<stop  offset="0" style="stop-color:#FFFFFF"/>
					<stop  offset="1" style="stop-color:#D1D3D4"/>
				</linearGradient>
				<path class="st20" d="M1191.6-19.8c0-2.3-0.8-4.2-2.4-5.8c-1.5-1.6-3.4-2.4-5.7-2.4H603.7c-2.2,0-4.1,0.8-5.7,2.4
					s-2.4,3.5-2.4,5.8v52.9c0,1.3,0.3,2.6,0.8,3.7c0.4,0.7,0.9,1.4,1.5,2.1c1.6,1.6,3.5,2.4,5.7,2.4h579.8c2.3,0,4.2-0.8,5.7-2.4
					c0.6-0.6,1.1-1.3,1.5-2.1c0.6-1.1,0.9-2.4,0.9-3.7L1191.6-19.8L1191.6-19.8z"/>
			</g>
		</g>
		<g>
			<path id="Layer8_1_1_STROKES" class="st3" d="M603.7-27.9c-2.2,0-4.1,0.8-5.7,2.4s-2.4,3.5-2.4,5.8v52.9c0,1.3,0.3,2.6,0.9,3.7
				c0.4,0.7,0.9,1.4,1.5,2.1c1.6,1.6,3.5,2.4,5.7,2.4h579.8c2.3,0,4.2-0.8,5.7-2.4c0.6-0.6,1.1-1.3,1.5-2.1c0.6-1.1,0.9-2.4,0.9-3.7
				v-52.9c0-2.3-0.8-4.2-2.4-5.8c-1.5-1.6-3.4-2.4-5.7-2.4L603.7-27.9L603.7-27.9z"/>
		</g>
	</g>
	<g transform="matrix( 0.9199066162109375, 0, 0, 0.9199066162109375, 680.8,356.45) ">
		<g>
			<text transform="matrix(1.0871 0 0 1.0871 -303.3604 -232.5976)" class="st4 st5 st6">Preparing Equipment and Work Bench</text>
		</g>
	</g>
	
		<image style="overflow:visible;enable-background:new    ;" width="116" height="116" xlink:href="7539417F3673D037.png"  transform="matrix(1 0 0 1 619.5958 175.9382)">
	</image>
</g>
<g id="menu-butonu">
	<g transform="matrix( 3, 0, 0, 3, 669.05,605.7) ">
		<g>
			<g id="Layer0_0_MEMBER_0_FILL">
				<path class="st21" d="M26.4-80.8c-0.8-0.9-1.9-1.3-3.1-1.3h-41.4c-1.2,0-2.3,0.4-3.1,1.3c-0.9,0.8-1.3,1.8-1.3,3.1v41.4
					c0,1.2,0.4,2.3,1.3,3.1c0.8,0.9,1.9,1.3,3.1,1.3h41.4c1.2,0,2.3-0.4,3.1-1.3c0.9-0.8,1.3-1.9,1.3-3.1v-41.4
					C27.7-79,27.3-80,26.4-80.8z"/>
			</g>
		</g>
	</g>
	<g transform="matrix( 3, 0, 0, 3, 669.65,606.4) ">
		<g>
			<g id="Layer0_0_MEMBER_1_FILL">
				
					<linearGradient id="SVGID_17_" gradientUnits="userSpaceOnUse" x1="-255.7946" y1="149.8259" x2="-255.7946" y2="97.8259" gradientTransform="matrix(27 0 0 -27 6908.7837 3961.9819)">
					<stop  offset="0" style="stop-color:#FFFFFF"/>
					<stop  offset="1" style="stop-color:#D1D3D4"/>
				</linearGradient>
				<path class="st22" d="M26-80.8c-0.8-0.9-1.9-1.3-3.1-1.3h-41c-1.2,0-2.2,0.4-3.1,1.3c-0.9,0.8-1.3,1.8-1.3,3.1v40.9
					c0,1.2,0.4,2.2,1.3,3.1s1.9,1.3,3.1,1.3h40.9c1.2,0,2.3-0.4,3.1-1.3c0.9-0.9,1.3-1.9,1.3-3.1v-40.9C27.3-79,26.8-80,26-80.8z"/>
			</g>
		</g>
	</g>
	<g transform="matrix( 3, 0, 0, 3, 679.15,615.9) ">
		<g>
			<g id="Layer0_0_MEMBER_2_FILL">
				
					<linearGradient id="SVGID_18_" gradientUnits="userSpaceOnUse" x1="-260.4818" y1="145.7264" x2="-260.4818" y2="188.4014" gradientTransform="matrix(27 0 0 -27 7032.2837 3895.4819)">
					<stop  offset="0" style="stop-color:#FFFFFF"/>
					<stop  offset="1" style="stop-color:#D1D3D4"/>
				</linearGradient>
				<path class="st23" d="M21-78.3c0-1-0.4-1.9-1.1-2.7c-0.7-0.7-1.6-1.1-2.7-1.1h-35.8c-1,0-1.9,0.4-2.7,1.1
					c-0.8,0.7-1.1,1.6-1.1,2.7v35.8c0,1.1,0.4,2,1.1,2.7c0.8,0.7,1.7,1.1,2.7,1.1h35.8c1.1,0,2-0.4,2.7-1.1c0.7-0.7,1.1-1.6,1.1-2.7
					V-78.3z"/>
			</g>
		</g>
	</g>
	<g transform="matrix( 1, 0, 0, 1, 667.65,622.5) ">
		<g>
			<g id="Layer0_0_MEMBER_3_MEMBER_0_FILL">
				<path class="st24" d="M43.8-209.1c2.7,0,4-1.3,4-4v-8.4c0-2.7-1.3-4-4-4h-69.4c-2.7,0-4,1.3-4,4v8.4c0,2.7,1.3,4,4,4H43.8z"/>
			</g>
		</g>
	</g>
	<g transform="matrix( 1, 0, 0, 1, 667.65,681.3) ">
		<g>
			<g id="Layer0_0_MEMBER_3_MEMBER_1_FILL">
				<path class="st24" d="M43.8-209.9c2.7,0,4-1.3,4-4v-8.4c0-2.7-1.3-4-4-4h-69.4c-2.7,0-4,1.3-4,4v8.4c0,2.7,1.3,4,4,4H43.8z"/>
			</g>
		</g>
	</g>
	<g transform="matrix( 1, 0, 0, 1, 667.65,651.9) ">
		<g>
			<g id="Layer0_0_MEMBER_3_MEMBER_2_FILL">
				<path class="st24" d="M43.8-209.9c2.7,0,4-1.3,4-4v-8.4c0-2.7-1.3-4-4-4h-69.4c-2.7,0-4,1.3-4,4v8.4c0,2.7,1.3,4,4,4H43.8z"/>
			</g>
		</g>
	</g>
</g>
</svg>
