
<svg xmlns="http://www.w3.org/2000/svg" version="1.1" xmlns:xlink="http://www.w3.org/1999/xlink" preserveAspectRatio="none" x="0px" y="0px" width="276px" height="340px" viewBox="0 0 276 340">
<defs>
<g id="Layer0_0_FILL">
 <a xlink:href="https://en.wikipedia.org/wiki/Bullseye_(target)" >
<path fill="#FFFF00" fill-opacity="0.4980392156862745" stroke="none" d="
M 264.8 62.9
Q 264.6 62.7 264.3 62.6
L 140.3 8.6
Q 139.9 8.4 139.4 8.4 138.9 8.4 138.5 8.7
L 68.9 49.7
Q 68.2 50.1 68 50.9
L 8.1 267.4
Q 7.9 267.9 8.1 268.5 8.2 269 8.7 269.4
L 16.5 276.5
Q 27.7 285.8 44.4 297.1 61.1 308.3 87.3 321.4 100.5 327.9 110.2 332.3 110.7 332.4 111.2 332.4
L 123.2 331.4
Q 123.7 331.4 124.2 331.1
L 182.7 289.6
Q 183.1 289.2 183.4 288.6
L 268.6 67.8
Q 268.8 67.2 268.7 66.6 268.5 66 268 65.6
L 264.8 62.9
M 262.6 66.2
L 264.4 67.7 179.9 286.6 122.3 327.5 111.4 328.4
Q 101.9 324.1 89.1 317.8 63.1 304.9 46.6 293.8 30.2 282.6 19.2 273.4
L 19.1 273.4 12.3 267.3 71.7 52.7 139.6 12.7 262.6 66.2 Z"/>
</a>
</g>
</defs>

<g transform="matrix( 1, 0, 0, 1, 0,0) ">
<use xlink:href="#Layer0_0_FILL"/>
</g>
</svg>
